<?xml version="1.0" encoding="UTF-8"?>
<svg version="1.1" xmlns="http://www.w3.org/2000/svg" width="506" height="509">
<path d="M0 0 C166.98 0 333.96 0 506 0 C506 167.97 506 335.94 506 509 C339.02 509 172.04 509 0 509 C0 341.03 0 173.06 0 0 Z " fill="#FEFEFD" transform="translate(0,0)"/>
<path d="M0 0 C0.92748047 0.00515625 1.85496094 0.0103125 2.81054688 0.015625 C6.7956619 0.06159605 10.32953726 0.21598041 14.1875 1.25 C15.70626954 1.33949422 17.22860471 1.38014855 18.75 1.375 C19.51441406 1.37757812 20.27882813 1.38015625 21.06640625 1.3828125 C23.37748495 1.32907384 23.37748495 1.32907384 26.1875 0.25 C39.62871073 -1.22147697 50.89163008 0.89842967 63.1875 6.25 C63.1875 6.91 63.1875 7.57 63.1875 8.25 C63.88875 8.4975 64.59 8.745 65.3125 9 C70.31888528 11.17668925 74.60289897 14.11392189 78.1875 18.25 C78.1875 18.91 78.1875 19.57 78.1875 20.25 C78.8475 20.25 79.5075 20.25 80.1875 20.25 C80.1875 20.91 80.1875 21.57 80.1875 22.25 C80.8475 22.25 81.5075 22.25 82.1875 22.25 C84.40497812 24.55276574 85.15510006 25.77480092 85.375 29 C85.313125 29.7425 85.25125 30.485 85.1875 31.25 C85.8475 31.25 86.5075 31.25 87.1875 31.25 C87.1875 32.24 87.1875 33.23 87.1875 34.25 C87.93773437 34.41113281 88.68796875 34.57226562 89.4609375 34.73828125 C93.54292466 37.00150336 94.28941531 40.17119686 95.8125 44.4375 C96.26133545 45.65699341 96.26133545 45.65699341 96.71923828 46.90112305 C101.00087375 58.91342397 102.62198104 70.32238931 102.54638672 83.01879883 C102.6426312 89.29429565 103.83183892 91.75885957 108.1875 96.25 C109 99.625 109 99.625 109.1875 102.25 C109.8475 102.25 110.5075 102.25 111.1875 102.25 C115.44902086 110.77304171 112.76074262 125.64631825 110.08813477 134.34399414 C109.05505989 137.3866449 107.96492777 140.40365621 106.83251953 143.41064453 C106.04483006 145.65684152 105.55509307 147.90019619 105.1875 150.25 C104.5275 150.25 103.8675 150.25 103.1875 150.25 C102.8575 151.9 102.5275 153.55 102.1875 155.25 C101.5275 155.25 100.8675 155.25 100.1875 155.25 C100.07535156 155.93707031 99.96320313 156.62414062 99.84765625 157.33203125 C99.08659692 160.69600356 97.88645542 163.72815614 96.625 166.9375 C92.73697016 177.75636565 93.54843812 186.80551025 98.1015625 197.37109375 C99.08507878 199.35811647 100.12795793 201.30253184 101.1875 203.25 C102.0690137 204.97585514 102.94377987 206.70516986 103.8125 208.4375 C104.21726562 209.23542969 104.62203125 210.03335938 105.0390625 210.85546875 C108.6094199 218.29978538 109.05934935 225.09512632 108.1875 233.25 C106.40523379 237.66661189 103.20140804 240.72272457 99.1875 243.25 C99.48943668 246.48346732 99.71422425 247.85366511 102.25390625 249.98046875 C103.07761719 250.46128906 103.90132812 250.94210937 104.75 251.4375 C106.25745452 252.32880306 107.74534085 253.25651258 109.1875 254.25 C109.1875 254.91 109.1875 255.57 109.1875 256.25 C109.8475 256.25 110.5075 256.25 111.1875 256.25 C111.1875 256.91 111.1875 257.57 111.1875 258.25 C111.8475 258.25 112.5075 258.25 113.1875 258.25 C113.1875 258.91 113.1875 259.57 113.1875 260.25 C113.8475 260.25 114.5075 260.25 115.1875 260.25 C115.1875 260.91 115.1875 261.57 115.1875 262.25 C115.785625 262.353125 116.38375 262.45625 117 262.5625 C119.50008286 263.34824033 120.56285082 264.21918853 122.1875 266.25 C122.1875 266.91 122.1875 267.57 122.1875 268.25 C122.8475 268.25 123.5075 268.25 124.1875 268.25 C124.1875 268.91 124.1875 269.57 124.1875 270.25 C122.8675 270.25 121.5475 270.25 120.1875 270.25 C120.1875 269.59 120.1875 268.93 120.1875 268.25 C115.2375 267.92 110.2875 267.59 105.1875 267.25 C105.1875 266.59 105.1875 265.93 105.1875 265.25 C104.15625 265.12625 103.125 265.0025 102.0625 264.875 C98.1875 264.25 98.1875 264.25 95.125 263.1875 C90.17811014 261.60870536 87.35654279 261.69624289 82.625 263.9375 C79.35493986 265.96694522 76.87307108 268.49556812 74.1875 271.25 C70.63355487 273.84141832 67.3039518 275.73341249 63.1875 277.25 C59.91651926 278.65184889 59.26569897 279.13270155 57.1875 282.25 C54.5625 282.9375 54.5625 282.9375 52.1875 283.25 C51.8575 284.24 51.5275 285.23 51.1875 286.25 C49.18359375 287.42578125 49.18359375 287.42578125 46.625 288.5625 C41.33435657 291.06339323 36.35430838 294.08319162 32.1875 298.25 C32.0943453 301.48063889 32.33470977 304.71094422 32.5 307.9375 C32.53544922 308.83662109 32.57089844 309.73574219 32.60742188 310.66210938 C32.85046345 315.60637309 33.6015897 319.547166 35.1875 324.25 C35.64649757 327.73875319 35.87580151 331.24085399 36.125 334.75 C36.82933209 343.50507883 38.13251321 351.70616906 40.1875 360.25 C40.52758093 362.10294093 40.86150226 363.95702954 41.1875 365.8125 C41.91449695 369.4715177 42.85049574 372.25863454 45.1875 375.25 C48.35373747 377.36082498 49.52062878 377.53173386 53.1875 377.75 C56.85437122 377.96826614 58.02126253 378.13917502 61.1875 380.25 C61.1875 380.91 61.1875 381.57 61.1875 382.25 C62.26 382.353125 63.3325 382.45625 64.4375 382.5625 C68.03684684 383.22238025 69.68753675 383.65003822 72.1875 386.25 C72.1875 387.24 72.1875 388.23 72.1875 389.25 C72.868125 389.353125 73.54875 389.45625 74.25 389.5625 C77.1875 390.25 77.1875 390.25 80.8125 391.8125 C84.03611488 393.44593103 84.03611488 393.44593103 87.1875 393.25 C87.455625 392.54875 87.72375 391.8475 88 391.125 C91.31477273 383.09976077 91.31477273 383.09976077 94.5625 379.9375 C97.46912541 376.96166922 99.10496369 374.01632978 100.9765625 370.3359375 C102.18827871 368.24865861 103.33412282 366.78957787 105.1875 365.25 C105.8475 365.25 106.5075 365.25 107.1875 365.25 C107.5175 364.26 107.8475 363.27 108.1875 362.25 C109.83179829 360.56126121 111.50134218 358.89694485 113.1875 357.25 C115.2838043 354.78375965 117.09422053 352.40670952 118.75 349.625 C120.07720697 347.43222327 121.39537018 346.04212982 123.1875 344.25 C123.6825 343.404375 124.1775 342.55875 124.6875 341.6875 C126.1875 339.25 126.1875 339.25 129.1875 337.25 C129.47625 336.651875 129.765 336.05375 130.0625 335.4375 C131.58107903 332.48470745 133.84698112 330.59051888 136.1875 328.25 C136.93 327.0125 136.93 327.0125 137.6875 325.75 C139.48763768 322.74977053 141.58962345 320.58142768 144.1875 318.25 C144.8475 318.25 145.5075 318.25 146.1875 318.25 C146.45304687 319.09304688 146.71859375 319.93609375 146.9921875 320.8046875 C147.52199219 322.44824219 147.52199219 322.44824219 148.0625 324.125 C148.41054688 325.21554687 148.75859375 326.30609375 149.1171875 327.4296875 C149.99925231 330.33522723 149.99925231 330.33522723 152.1875 332.25 C152.8888284 334.57315031 153.55235174 336.90789079 154.1875 339.25 C154.538125 340.095625 154.88875 340.94125 155.25 341.8125 C157.332919 347.22808939 157.28601124 352.53634806 157.1875 358.25 C155.8675 358.58 154.5475 358.91 153.1875 359.25 C152.8575 364.86 152.5275 370.47 152.1875 376.25 C152.8475 376.25 153.5075 376.25 154.1875 376.25 C154.27314209 376.9112085 154.35878418 377.57241699 154.44702148 378.25366211 C154.83529828 381.23219871 155.2300605 384.20983985 155.625 387.1875 C155.75970703 388.22841797 155.89441406 389.26933594 156.03320312 390.34179688 C156.23139648 391.82583008 156.23139648 391.82583008 156.43359375 393.33984375 C156.55404053 394.25628662 156.6744873 395.17272949 156.79858398 396.11694336 C156.97425073 398.22635212 156.97425073 398.22635212 158.1875 399.25 C158.56271743 401.56419018 158.88063273 403.86118599 159.16015625 406.1875 C159.24752548 406.90043213 159.33489471 407.61336426 159.4249115 408.34790039 C159.6096143 409.87097153 159.79187324 411.39434065 159.97192383 412.91796875 C160.24240529 415.18630845 160.52792195 417.45239051 160.81445312 419.71875 C161.74113822 427.29975766 162.40773834 434.86125454 162.55859375 442.5 C162.58478287 443.19085693 162.61097198 443.88171387 162.63795471 444.59350586 C162.65886333 449.60171684 161.37085361 452.43266592 158.1875 456.25 C149.57444097 460.86413877 139.57488593 459.86851482 130.1875 458.25 C128.17021862 457.63761101 126.16145523 456.99023321 124.1875 456.25 C124.1875 455.59 124.1875 454.93 124.1875 454.25 C123.548125 454.1675 122.90875 454.085 122.25 454 C114.29861334 452.05272163 106.86800808 447.69075575 99.640625 443.921875 C98.76921875 443.47328125 97.8978125 443.0246875 97 442.5625 C95.80310547 441.93794922 95.80310547 441.93794922 94.58203125 441.30078125 C92.11589018 440.21857579 89.83912331 439.67859276 87.1875 439.25 C87.001875 440.11625 87.001875 440.11625 86.8125 441 C86.1875 443.25 86.1875 443.25 85.12890625 445.00390625 C83.86743287 448.01364564 84.17926388 450.20308872 84.5 453.4375 C84.59925781 454.50355469 84.69851563 455.56960938 84.80078125 456.66796875 C85.25367974 460.86299816 85.72154453 465.05640079 86.1875 469.25 C69.6875 469.25 53.1875 469.25 36.1875 469.25 C38.1875 464.25 38.1875 464.25 40.625 461.875 C43.09583076 459.34390507 44.00785167 457.45993642 45.2421875 454.2109375 C46.84596643 450.88409031 49.2446506 448.1734662 51.5546875 445.3125 C53.33329854 443.06583342 54.75298411 440.72780017 56.1875 438.25 C57.0170642 437.14299877 57.85077822 436.03910117 58.6875 434.9375 C61.36939583 431.25900844 62.75205595 427.55633214 64.1875 423.25 C63.424375 423.1675 62.66125 423.085 61.875 423 C58.58895749 422.33165237 55.55300346 421.49269646 52.375 420.4375 C51.41980469 420.12167969 50.46460938 419.80585938 49.48046875 419.48046875 C47.1875 418.25 47.1875 418.25 46.36328125 416.11328125 C46.27626953 415.19095703 46.27626953 415.19095703 46.1875 414.25 C45.424375 414.146875 44.66125 414.04375 43.875 413.9375 C40.87659338 413.17046575 40.11352278 412.59472339 38.1875 410.25 C37.465625 409.404375 36.74375 408.55875 36 407.6875 C34.1875 405.25 34.1875 405.25 34.1875 403.25 C33.300625 403.188125 32.41375 403.12625 31.5 403.0625 C27.39148879 402.05475197 25.94939868 400.38512823 23.1875 397.25 C22.589375 396.693125 21.99125 396.13625 21.375 395.5625 C20.1875 394.25 20.1875 394.25 20.1875 392.25 C18.8675 392.25 17.5475 392.25 16.1875 392.25 C16.01927734 393.1471875 16.01927734 393.1471875 15.84765625 394.0625 C14.54478332 398.37971207 10.8676752 401.30566795 7.046875 403.453125 C5.65183333 404.12555516 4.24469333 404.77373318 2.82421875 405.390625 C0.99532734 406.1476737 0.99532734 406.1476737 0.1875 408.25 C-0.4725 408.25 -1.1325 408.25 -1.8125 408.25 C-2.01875 409.013125 -2.225 409.77625 -2.4375 410.5625 C-4.23705204 414.07980627 -6.28024556 414.67175865 -9.8125 416.25 C-10.1425 416.91 -10.4725 417.57 -10.8125 418.25 C-12.96484375 419.1796875 -12.96484375 419.1796875 -15.75 420.125 C-21.17268277 422.01482963 -26.49306855 424.08954832 -31.8125 426.25 C-32.67359375 426.57871094 -33.5346875 426.90742188 -34.421875 427.24609375 C-36.9868903 428.23221638 -36.9868903 428.23221638 -39.6875 430.1875 C-42.34110226 431.93887749 -44.82066396 433.14589473 -47.75 434.3359375 C-53.00314812 436.66403724 -58.33383264 439.3841397 -62.9296875 442.84375 C-65.64807308 444.87407948 -68.69412521 445.93700009 -71.8125 447.25 C-72.9571875 447.9615625 -72.9571875 447.9615625 -74.125 448.6875 C-78.86801681 451.44506791 -84.26560157 454.25 -89.8125 454.25 C-89.8125 454.91 -89.8125 455.57 -89.8125 456.25 C-95.53155383 457.07536345 -101.0392149 457.37753701 -106.8125 457.3125 C-107.58722656 457.30798828 -108.36195313 457.30347656 -109.16015625 457.29882812 C-111.04430524 457.28719758 -112.92841365 457.26926906 -114.8125 457.25 C-114.8125 456.59 -114.8125 455.93 -114.8125 455.25 C-116.4625 455.25 -118.1125 455.25 -119.8125 455.25 C-120.1425 453.6 -120.4725 451.95 -120.8125 450.25 C-120.26464844 450.22421875 -119.71679688 450.1984375 -119.15234375 450.171875 C-108.01880317 449.37532901 -97.29977552 445.92164573 -86.8125 442.25 C-85.69875 441.899375 -84.585 441.54875 -83.4375 441.1875 C-80.63312469 440.30558108 -80.63312469 440.30558108 -77.8125 438.25 C-76.4925 438.25 -75.1725 438.25 -73.8125 438.25 C-73.8125 437.59 -73.8125 436.93 -73.8125 436.25 C-72.23282193 435.57471777 -70.64858097 434.91010306 -69.0625 434.25 C-68.18078125 433.87875 -67.2990625 433.5075 -66.390625 433.125 C-63.8125 432.25 -63.8125 432.25 -59.8125 432.25 C-59.8125 431.59 -59.8125 430.93 -59.8125 430.25 C-58.1625 430.25 -56.5125 430.25 -54.8125 430.25 C-54.4825 429.26 -54.1525 428.27 -53.8125 427.25 C-49.7158589 425.12289789 -46.45016855 423.82839377 -41.8125 424.25 C-41.8125 423.59 -41.8125 422.93 -41.8125 422.25 C-40.4925 421.59 -39.1725 420.93 -37.8125 420.25 C-38.10125 419.5075 -38.39 418.765 -38.6875 418 C-41.23234446 409.51718513 -42.16426117 401.08311393 -41.8125 392.25 C-41.1525 392.25 -40.4925 392.25 -39.8125 392.25 C-39.8125 391.26 -39.8125 390.27 -39.8125 389.25 C-38.4925 389.25 -37.1725 389.25 -35.8125 389.25 C-35.73 388.651875 -35.6475 388.05375 -35.5625 387.4375 C-34.57221603 384.54917175 -33.46313227 383.72257348 -30.8125 382.25 C-28.0625 382.0625 -28.0625 382.0625 -25.8125 382.25 C-25.8125 381.59 -25.8125 380.93 -25.8125 380.25 C-25.14863281 380.12882812 -24.48476562 380.00765625 -23.80078125 379.8828125 C-14.23858803 378.16053179 -14.23858803 378.16053179 -6.8125 372.25 C-3.9975881 365.49421145 -2.51018792 358.50595437 -1.8125 351.25 C-1.4825 350.92 -1.1525 350.59 -0.8125 350.25 C-0.52812155 348.88487179 -0.29837477 347.5082448 -0.09375 346.12890625 C0.03386719 345.27490234 0.16148437 344.42089844 0.29296875 343.54101562 C0.42316406 342.64060547 0.55335938 341.74019531 0.6875 340.8125 C0.81769531 339.94689453 0.94789063 339.08128906 1.08203125 338.18945312 C1.96157666 332.22364764 2.63858786 326.2549374 3.1875 320.25 C1.5375 320.25 -0.1125 320.25 -1.8125 320.25 C-1.8125 320.91 -1.8125 321.57 -1.8125 322.25 C-3.1325 322.25 -4.4525 322.25 -5.8125 322.25 C-6.4725 323.57 -7.1325 324.89 -7.8125 326.25 C-9.1325 326.25 -10.4525 326.25 -11.8125 326.25 C-11.8125 326.91 -11.8125 327.57 -11.8125 328.25 C-13.7925 328.58 -15.7725 328.91 -17.8125 329.25 C-18.1425 330.24 -18.4725 331.23 -18.8125 332.25 C-20.65627565 332.96702386 -22.50617975 333.67099881 -24.37890625 334.30859375 C-27.11458904 335.36685948 -29.56720069 336.69013697 -32.125 338.125 C-36.7254448 340.69564966 -41.37902307 342.97078202 -46.203125 345.08984375 C-47.83490853 345.81535229 -49.45296517 346.57359167 -51.046875 347.37890625 C-57.41375059 350.52748889 -63.81134366 351.38194386 -70.8125 352.25 C-73.33120829 362.83218358 -74.81242063 373.32986901 -76 384.125 C-76.1784023 385.69929074 -76.35743543 387.27351013 -76.53710938 388.84765625 C-76.96948599 392.64765764 -77.39342048 396.44851016 -77.8125 400.25 C-78.4725 400.25 -79.1325 400.25 -79.8125 400.25 C-79.8125 402.89 -79.8125 405.53 -79.8125 408.25 C-80.4725 408.25 -81.1325 408.25 -81.8125 408.25 C-81.8125 408.91 -81.8125 409.57 -81.8125 410.25 C-84.24563372 411.28251062 -86.68306892 412.30119521 -89.125 413.3125 C-90.16043945 413.75432617 -90.16043945 413.75432617 -91.21679688 414.20507812 C-96.47265625 416.36328125 -96.47265625 416.36328125 -99.8125 415.25 C-99.1525 414.26 -98.4925 413.27 -97.8125 412.25 C-96.8225 412.25 -95.8325 412.25 -94.8125 412.25 C-94.8125 411.59 -94.8125 410.93 -94.8125 410.25 C-92.87011972 408.03013682 -91.38453301 406.4788132 -88.625 405.375 C-86.44038694 404.31325732 -86.44038694 404.31325732 -86.0625 401.125 C-85.98 400.17625 -85.8975 399.2275 -85.8125 398.25 C-85.1525 398.25 -84.4925 398.25 -83.8125 398.25 C-83.874375 397.1775 -83.93625 396.105 -84 395 C-83.79332936 390.86658728 -83.15245559 390.36994079 -80.8125 387.25 C-80.56186268 383.58285151 -80.56186268 383.58285151 -80.8125 380.25 C-82.0809375 380.3428125 -82.0809375 380.3428125 -83.375 380.4375 C-86.73086138 380.25445302 -88.64840335 379.45961399 -91.62890625 378.0390625 C-94.49277424 377.00417639 -97.2970474 376.65758695 -100.3125 376.25 C-105.3419291 375.56548716 -109.30591107 374.55569666 -113.8125 372.25 C-114.21543163 365.50462612 -113.33300178 359.85169191 -111.54296875 353.35546875 C-110.55758579 349.16627379 -110.262625 345.03438394 -110.0234375 340.74609375 C-109.8125 338.25 -109.8125 338.25 -108.8125 335.25 C-108.65951247 333.43964753 -108.53867849 331.62648571 -108.4375 329.8125 C-108.02688575 324.46809895 -107.02420822 319.56652778 -105.640625 314.3984375 C-103.77310157 307.29832484 -102.01086977 300.06891522 -101.3125 292.75 C-100.7831565 289.04459548 -99.66836564 286.47759241 -97.8125 283.25 C-97.1525 283.25 -96.4925 283.25 -95.8125 283.25 C-95.70679688 282.67121094 -95.60109375 282.09242188 -95.4921875 281.49609375 C-94.7136107 278.92321064 -93.60671417 277.40939839 -91.9375 275.3125 C-90.16049533 273.04164842 -88.65536799 270.96716238 -87.25 268.4375 C-85.8125 266.25 -85.8125 266.25 -83.5 264.875 C-80.94866194 263.33233048 -79.82709572 262.20647485 -78 259.9375 C-73.82527194 254.84584201 -68.75539729 251.06297138 -62.8125 248.25 C-63.3075 245.775 -63.3075 245.775 -63.8125 243.25 C-64.8025 242.92 -65.7925 242.59 -66.8125 242.25 C-66.8125 241.59 -66.8125 240.93 -66.8125 240.25 C-67.8025 239.92 -68.7925 239.59 -69.8125 239.25 C-71.60507318 230.51120573 -70.74649782 222.8615173 -68.8125 214.25 C-68.43306378 212.37589271 -68.05791952 210.50091028 -67.6875 208.625 C-67.39583333 207.16666667 -67.10416667 205.70833333 -66.8125 204.25 C-66.1525 204.25 -65.4925 204.25 -64.8125 204.25 C-64.8125 202.93 -64.8125 201.61 -64.8125 200.25 C-64.1525 200.25 -63.4925 200.25 -62.8125 200.25 C-62.8125 198.93 -62.8125 197.61 -62.8125 196.25 C-62.1525 196.25 -61.4925 196.25 -60.8125 196.25 C-60.68875 195.5075 -60.565 194.765 -60.4375 194 C-59.8125 191.25 -59.8125 191.25 -58.79296875 189.4921875 C-55.70267791 182.4251479 -57.39573963 172.72535025 -59.8359375 165.6328125 C-60.84074282 163.18108751 -61.96712609 160.82047921 -63.125 158.4375 C-65.68340872 153.0105724 -67.36083001 147.44248324 -69 141.6875 C-69.24983643 140.81311279 -69.49967285 139.93872559 -69.75708008 139.0378418 C-72.42088481 129.44796496 -74.12974022 120.6067035 -73.9375 110.625 C-73.92847656 109.71621094 -73.91945312 108.80742187 -73.91015625 107.87109375 C-73.88692125 105.66376901 -73.85426346 103.45703834 -73.8125 101.25 C-73.1525 101.25 -72.4925 101.25 -71.8125 101.25 C-71.70969727 100.66114014 -71.60689453 100.07228027 -71.50097656 99.46557617 C-70.7040364 96.90095492 -69.61164878 95.75701182 -67.796875 93.80078125 C-63.62813024 88.41802032 -63.99455903 83.01645074 -64.0625 76.4375 C-64.022977 65.07463765 -63.63960241 54.76094483 -58.375 44.5 C-56.05314909 39.79637944 -53.84057212 35.08760323 -51.8125 30.25 C-51.1525 30.25 -50.4925 30.25 -49.8125 30.25 C-49.54695313 29.66863281 -49.28140625 29.08726563 -49.0078125 28.48828125 C-42.17563823 15.69470002 -26.77157113 5.05023612 -13.26391602 0.80371094 C-8.85377728 -0.19242437 -4.49918171 -0.10218156 0 0 Z " fill="#EBAD7D" transform="translate(236.8125,39.75)"/>
</svg>